<?xml version="1.0" encoding="utf-8"?>
<!-- Generator: Adobe Illustrator 18.0.0, SVG Export Plug-In . SVG Version: 6.00 Build 0)  -->
<!DOCTYPE svg PUBLIC "-//W3C//DTD SVG 1.1//EN" "http://www.w3.org/Graphics/SVG/1.1/DTD/svg11.dtd">
<svg version="1.1" id="Слой_1" xmlns="http://www.w3.org/2000/svg" xmlns:xlink="http://www.w3.org/1999/xlink" x="0px" y="0px"
	 viewBox="99.5 -30.1 805.4 836.6" enable-background="new 99.5 -30.1 805.4 836.6" xml:space="preserve">
<path fill="#000000"    d="M853,760.4l-87.1-121.2c6.3-1.3,10.8-2.3,10.8-2.3
	c5.2-0.6,12.8-11.5,17.4-19.1c-3.5,12.8-11.8,45.1-2.9,39.5c0,0,9.6-22.7,10.6-46.4c0-0.9,0.1-1.7,0.1-2.5c3.3-2.3,5.7-4.5,7.5-6.6
	c1.2,0.3,2.4,0.6,3.8,0.9c35.6,8.1,35.1,0.8,35.1,0.8c-0.1-6.9-30-6.3-35.7-6.1c1.9-3.4,2.1-5.7,2.1-5.7c-0.4-7.4-9.1-9.1-17.5-9
	c-16.6-50.1-20.3-50.5-20.3-50.5c-5.8,3.9,10.1,35.2,18.4,50.5c-7.5,0.3-14.4,1.9-14.4,1.9c-11.1,0-33,8.3-44.8,13.1l-44.3-61.6
	c18-6.7,31.3-14.5,34.7-23.5l3.4-4.6c-1.9,9.6-9.1,49.7,0.1,42.7c0,0,7.6-23.4,6.5-47.2c0-0.4,0-0.8-0.1-1.2
	c2.9-1.9,6.9-4.7,9.5-8.1c0.4,0.1,0.8,0.1,1.2,0.2c36.2,4.9,35-2.3,35-2.3c-0.6-6.1-24.5-4.2-33.6-3.2c0.2-1.2,0.3-2.4-0.1-3.6
	c0,0,0-8-17.1-7.3c-19.6-50.5-26.8-50.5-26.8-50.5c-5,4,12.1,33.1,23.2,50.8c-3.4,0.3-7.2,0.9-11.8,1.9c0,0-19.8-0.7-55.1,12.9
	l-18.2-25.4c21-7.3,38.3-14.1,49.1-19.5c0,0,9.1-13.2,4.5-27.1c0,0,35.7-15.4,46.9-30.5c0,0,18.5-7.2,8.6-29.6c0,0,0.8-3.3,0.5-6.6
	l11.8-3.7c1-1.2-1.1-2.8-1.1-2.8s-6.1,1.9-11.3,3.5c-0.7-1.8-2.1-3.3-4.4-3.8c0,0,0.4-0.9-0.2-2.2l12.5-3.9c1-1.2-1.1-2.8-1.1-2.8
	s-8.1,2.5-13.7,4.2c-2.2-1.4-6.1-2.7-13.2-3.3l-31.1,1.1c0,0-6.1-6-23.9-1.5c0,0-53.4,14.3-53.8,21.3c0,0-18.8,5.9-48.8,15.6
	l-26.1-33c18.9-9.4,30.3-21.1,35.1-26.7c0.4,14.7,2.1,49.8,9.4,42.1c0,0,3.8-24.9-1.3-48.8c-0.1-0.3-0.1-0.6-0.2-1
	c4.3-3.8,7.1-7.2,8.9-10.1c0.2,0,0.3,0,0.5,0c37.4-1,35-8.1,35-8.1c-1.6-5.8-23-0.8-32.9,1.9c0.8-4.2-0.8-6.3-0.8-6.3
	c-4.1-4-12.2-5.1-22.8-4.1c-28.6-44.6-32.4-44-32.4-44c-4.6,5.2,17.6,30.7,30.1,44.2c-16.8,2-39.3,8.8-62.8,17.4l-54.4-68.7
	c22.6-13.1,21.5-24.9,21.5-24.9c0.2-0.1,0.3-0.1,0.5-0.2c-2.4,14.3-6.4,43,1.4,36.9c0,0,6.2-19.5,6.3-40.9
	c9.5-5.7,13.7-11.1,15.4-15c31.1,3.4,30-3.1,30-3.1c-0.6-5.3-18.4-4.4-29.1-3.4c-3.8-7.9-13.7-9-22.1-8.3
	C460,119.9,456,119.8,456,119.8c-5.9,4.9,17.5,40.2,25.8,52.4c-6.8,0.7-12.3,2.4-12.3,2.4c-5.3-0.9-25.8,6.7-44.2,14.1l-135.5-171
	c0,0-30.2-49.6-70.2-37.8c0,0-31.6,12.6,0,72.1l149.6,290.9l14.6,19.9c-3.7,8.3,1.8,10.5,7.9,10.8l37.2,50.7
	c-8.6,2.9-17.2,5.8-25.8,8.8c-30.4-9.7-33.9,8.3-33.9,8.3c-5.4,2.1-10.6,5.5-14.7,8.5c-40.7,14.3-79.6,28.5-111.3,41l-89-100.3
	l12.8-26.1c17.3-34.5,6.5-34.5,6.5-34.5C156.8,328.9,137,358,137,358l-37.5,57.7c0,0,0,0,1.7,0.4c1.7,0.4,15.6-0.4,15.6-0.4
	l59.5,97.4c-8.4,3.4-9.5,16.1-9.5,16.1l-5.9,1.1c-8.9,8.4-0.7,13.5-0.7,13.5l1.1-0.5c-1.4,8.3,1.3,18,20,20.2c0,0,11.6-2.5,29.5-6.3
	c-2.1,13.3,8.4,9.9,8.4,9.9l83.9,89.3c2.4,1.3,6.1,1,9.7,0.2c1.1,1.2,2.3,2.6,3.1,4.1l-11.2,18l17.7,1.7c0,0,25.3-10.1,35-28.2
	c0,0,28.2-52.3,16.4-61.1c0,0-10.4-4.1-35.5,32.5L280.8,542c60-13,126.1-27.7,133.5-30.4l-3.3,25.8c0,0,37.7-10.2,86-24.3l33,42.6
	c-4.4,4.5-4.2,8.5,7.5,9.7l3,3.9l240.6,215c0,0,37.2,32.2,71.7,19.1C853,803.4,874.3,790.1,853,760.4z"/>
</svg>
